STARTFONT 2.1
COMMENT
COMMENT Converted from OpenType font "Q:\font stuff\winfont\EUROCAPS.TTF" by "otf2bdf 3.0".
COMMENT
FONT -FreeType-Euro Caps-Medium-R-Normal--34-340-72-72-P-150-ISO10646-1
SIZE 34 72 72
FONTBOUNDINGBOX 47 37 -4 -9
STARTPROPERTIES 19
FOUNDRY "FreeType"
FAMILY_NAME "Euro Caps"
WEIGHT_NAME "Medium"
SLANT "R"
SETWIDTH_NAME "Normal"
ADD_STYLE_NAME ""
PIXEL_SIZE 34
POINT_SIZE 340
RESOLUTION_X 72
RESOLUTION_Y 72
SPACING "P"
AVERAGE_WIDTH 150
CHARSET_REGISTRY "ISO10646"
CHARSET_ENCODING "1"
FONT_ASCENT 30
FONT_DESCENT 10
COPYRIGHT "©2010"
_OTF_FONTFILE "Q:\font stuff\winfont\EUROCAPS.TTF"
_OTF_PSNAME "EuroCaps"
ENDPROPERTIES
CHARS 259
STARTCHAR 0020
ENCODING 32
SWIDTH 294 0
DWIDTH 10 0
BBX 0 0 0 0
BITMAP
ENDCHAR
STARTCHAR 0021
ENCODING 33
SWIDTH 264 0
DWIDTH 9 0
BBX 3 23 3 0
BITMAP
E0
E0
E0
E0
E0
E0
E0
E0
E0
E0
E0
E0
E0
E0
E0
E0
00
00
00
E0
E0
E0
E0
ENDCHAR
STARTCHAR 0022
ENCODING 34
SWIDTH 323 0
DWIDTH 11 0
BBX 7 9 2 14
BITMAP
C6
C6
C6
C6
C6
C6
C6
C6
C6
ENDCHAR
STARTCHAR 0023
ENCODING 35
SWIDTH 500 0
DWIDTH 17 0
BBX 15 19 1 0
BITMAP
0618
0618
0618
0618
0630
0C30
7FFE
7FFE
0C30
0C30
0C60
FFFC
FFFC
1860
1860
1860
18C0
18C0
30C0
ENDCHAR
STARTCHAR 0024
ENCODING 36
SWIDTH 588 0
DWIDTH 20 0
BBX 16 24 2 -2
BITMAP
0180
0180
1FFC
7FFE
F18F
E187
E187
E187
E180
E180
F180
7FFC
3FFE
019F
0187
0187
C187
C187
C187
E18F
7FFE
3FF8
0180
0180
ENDCHAR
STARTCHAR 0025
ENCODING 37
SWIDTH 882 0
DWIDTH 30 0
BBX 28 20 1 0
BITMAP
00003000
3FC07000
FFE06000
E070E000
C030C000
C031C000
C0318000
C0338000
C0333FC0
C0367FE0
FFF6E070
3FCCC030
000CC030
0018C030
0038C030
0030C030
0070C030
0060E070
00E07FE0
00C03FC0
ENDCHAR
STARTCHAR 0026
ENCODING 38
SWIDTH 647 0
DWIDTH 22 0
BBX 19 19 2 -1
BITMAP
0FF000
1FF800
381C00
381C00
381C00
381C00
3C0000
1E0000
7F8000
73C000
E1E700
E0F700
E03F00
E01F00
E00F00
E00780
700FC0
7FFCE0
1FF840
ENDCHAR
STARTCHAR 0027
ENCODING 39
SWIDTH 176 0
DWIDTH 6 0
BBX 2 9 2 14
BITMAP
C0
C0
C0
C0
C0
C0
C0
C0
C0
ENDCHAR
STARTCHAR 0028
ENCODING 40
SWIDTH 323 0
DWIDTH 11 0
BBX 6 31 3 -6
BITMAP
1C
7C
78
E0
E0
E0
E0
E0
E0
E0
E0
E0
E0
E0
E0
E0
E0
E0
E0
E0
E0
E0
E0
E0
E0
E0
E0
F0
78
7C
1C
ENDCHAR
STARTCHAR 0029
ENCODING 41
SWIDTH 323 0
DWIDTH 11 0
BBX 7 31 2 -6
BITMAP
F0
F8
7C
1C
0E
0E
0E
0E
0E
0E
0E
0E
0E
0E
0E
0E
0E
0E
0E
0E
0E
0E
0E
0E
0E
0E
0E
1C
3C
F8
F0
ENDCHAR
STARTCHAR 002A
ENCODING 42
SWIDTH 500 0
DWIDTH 17 0
BBX 14 14 1 9
BITMAP
0300
0300
0300
0300
0300
F33C
7FF8
1FC0
0780
0FC0
0CC0
1860
3070
1020
ENDCHAR
STARTCHAR 002B
ENCODING 43
SWIDTH 529 0
DWIDTH 18 0
BBX 16 15 1 2
BITMAP
0180
0180
0180
0180
0180
0180
FFFF
FFFF
0180
0180
0180
0180
0180
0180
0180
ENDCHAR
STARTCHAR 002C
ENCODING 44
SWIDTH 235 0
DWIDTH 8 0
BBX 4 8 2 -4
BITMAP
F0
F0
F0
F0
30
30
F0
E0
ENDCHAR
STARTCHAR 002D
ENCODING 45
SWIDTH 264 0
DWIDTH 9 0
BBX 8 3 0 8
BITMAP
FF
FF
FF
ENDCHAR
STARTCHAR 002E
ENCODING 46
SWIDTH 205 0
DWIDTH 7 0
BBX 3 4 2 0
BITMAP
E0
E0
E0
E0
ENDCHAR
STARTCHAR 002F
ENCODING 47
SWIDTH 588 0
DWIDTH 20 0
BBX 19 26 1 -3
BITMAP
0000E0
0000C0
000180
000380
000300
000600
000E00
000C00
001800
003800
003000
006000
00E000
00C000
018000
030000
030000
060000
0C0000
0C0000
180000
300000
300000
600000
C00000
C00000
ENDCHAR
STARTCHAR 0030
ENCODING 48
SWIDTH 558 0
DWIDTH 19 0
BBX 15 19 2 0
BITMAP
1FF0
7FFC
701C
E00E
E00E
E00E
E00E
E00E
E00E
E00E
E00E
E00E
E00E
E00E
E00E
E00E
701C
7FFC
1FF0
ENDCHAR
STARTCHAR 0031
ENCODING 49
SWIDTH 558 0
DWIDTH 19 0
BBX 9 20 5 0
BITMAP
0780
0F80
1F80
3F80
7B80
F380
E380
4380
0380
0380
0380
0380
0380
0380
0380
0380
0380
0380
0380
0380
ENDCHAR
STARTCHAR 0032
ENCODING 50
SWIDTH 529 0
DWIDTH 18 0
BBX 14 19 2 0
BITMAP
1FE0
7FF8
F03C
E01C
E01C
E01C
001C
001C
001C
007C
1FF8
7FE0
F800
E000
E000
E000
E000
FFFC
FFFC
ENDCHAR
STARTCHAR 0033
ENCODING 51
SWIDTH 529 0
DWIDTH 18 0
BBX 14 19 2 0
BITMAP
3FF0
7FF8
F03C
E01C
E01C
E01C
001C
003C
07F8
07F8
003C
001C
E01C
E01C
E01C
E01C
F03C
7FF8
1FE0
ENDCHAR
STARTCHAR 0034
ENCODING 52
SWIDTH 558 0
DWIDTH 19 0
BBX 16 20 1 0
BITMAP
0078
00F8
01F8
01B8
03B8
0738
0638
0E38
1C38
1838
3838
7038
6038
E038
FFFF
FFFF
0038
0038
0038
0038
ENDCHAR
STARTCHAR 0035
ENCODING 53
SWIDTH 558 0
DWIDTH 19 0
BBX 15 20 2 0
BITMAP
FFFC
FFFC
E000
E000
E000
E000
EFF0
FFFC
F01C
E00E
000E
000E
000E
000E
E00E
E00E
E00E
F01C
7FFC
1FF0
ENDCHAR
STARTCHAR 0036
ENCODING 54
SWIDTH 558 0
DWIDTH 19 0
BBX 15 19 2 0
BITMAP
1FF0
7FF8
703C
E01C
E01C
E000
E000
EFF0
FFFC
F01E
E00E
E00E
E00E
E00E
E00E
E00E
701C
7FFC
1FF0
ENDCHAR
STARTCHAR 0037
ENCODING 55
SWIDTH 529 0
DWIDTH 18 0
BBX 14 20 2 0
BITMAP
FFFC
FFFC
001C
001C
0038
0038
0070
0070
00E0
00C0
01C0
0380
0380
0700
0700
0E00
0E00
1C00
1C00
3800
ENDCHAR
STARTCHAR 0038
ENCODING 56
SWIDTH 529 0
DWIDTH 18 0
BBX 15 19 2 0
BITMAP
3FF0
7FF8
F03C
E01C
E01C
E01C
E01C
F03C
7FF8
7FF8
F01C
E00E
E00E
E00E
E00E
E00E
F01E
7FFC
1FF0
ENDCHAR
STARTCHAR 0039
ENCODING 57
SWIDTH 558 0
DWIDTH 19 0
BBX 15 19 2 0
BITMAP
1FF0
7FFC
701C
E00E
E00E
E00E
E00E
E00E
E00E
F01E
7FFE
1FEE
000E
000E
E00E
E00E
F01C
7FFC
3FF0
ENDCHAR
STARTCHAR 003A
ENCODING 58
SWIDTH 205 0
DWIDTH 7 0
BBX 3 18 2 0
BITMAP
E0
E0
E0
E0
00
00
00
00
00
00
00
00
00
00
E0
E0
E0
E0
ENDCHAR
STARTCHAR 003B
ENCODING 59
SWIDTH 235 0
DWIDTH 8 0
BBX 4 22 2 -4
BITMAP
E0
E0
E0
E0
00
00
00
00
00
00
00
00
00
00
F0
F0
F0
F0
70
70
F0
E0
ENDCHAR
STARTCHAR 003C
ENCODING 60
SWIDTH 500 0
DWIDTH 17 0
BBX 15 15 1 2
BITMAP
000E
003E
00FC
03F0
0FC0
3E00
F800
E000
F800
3E00
0FC0
03F0
00FC
003E
0006
ENDCHAR
STARTCHAR 003D
ENCODING 61
SWIDTH 529 0
DWIDTH 18 0
BBX 16 7 1 6
BITMAP
FFFF
FFFF
0000
0000
0000
FFFF
FFFF
ENDCHAR
STARTCHAR 003E
ENCODING 62
SWIDTH 500 0
DWIDTH 17 0
BBX 15 15 1 2
BITMAP
E000
F800
7E00
1F80
07E0
00F8
003E
000E
003E
00F8
07E0
1F80
7E00
F800
C000
ENDCHAR
STARTCHAR 003F
ENCODING 63
SWIDTH 470 0
DWIDTH 16 0
BBX 12 23 2 0
BITMAP
3FC0
7FE0
F0F0
E070
E070
E070
0070
0070
00F0
03E0
07C0
0F00
0E00
0E00
0E00
0E00
0000
0000
0000
0E00
0E00
0E00
0E00
ENDCHAR
STARTCHAR 0040
ENCODING 64
SWIDTH 735 0
DWIDTH 25 0
BBX 21 23 2 0
BITMAP
07FF80
3FFFE0
780070
600030
600018
C1FB18
C3FF18
C70718
C60318
C60318
C60318
C60318
C60318
C60318
C60318
C70730
C3FDF0
E1F9E0
600000
600000
380040
1FFFC0
07FF80
ENDCHAR
STARTCHAR 0041
ENCODING 65
SWIDTH 558 0
DWIDTH 19 0
BBX 17 19 1 0
BITMAP
03C000
03E000
03E000
076000
077000
063000
0E3800
0E3800
1C1800
1C1C00
181C00
380E00
380E00
7FFE00
7FFF00
600700
E00380
E00380
C00180
ENDCHAR
STARTCHAR 0042
ENCODING 66
SWIDTH 588 0
DWIDTH 20 0
BBX 17 19 2 0
BITMAP
FFFC00
FFFE00
E00F00
E00700
E00700
E00700
E00700
E00F00
FFFE00
FFFF00
E00700
E00380
E00380
E00380
E00380
E00380
E00700
FFFF00
FFFC00
ENDCHAR
STARTCHAR 0043
ENCODING 67
SWIDTH 558 0
DWIDTH 19 0
BBX 16 20 2 0
BITMAP
0FFC
3FFE
700F
E007
E007
E007
E000
E000
E000
E000
E000
E000
E000
E007
E007
E007
F007
700F
3FFE
1FFC
ENDCHAR
STARTCHAR 0044
ENCODING 68
SWIDTH 617 0
DWIDTH 21 0
BBX 17 19 2 0
BITMAP
FFF800
FFFE00
E00F00
E00700
E00380
E00380
E00380
E00380
E00380
E00380
E00380
E00380
E00380
E00380
E00380
E00700
E00F00
FFFE00
FFF800
ENDCHAR
STARTCHAR 0045
ENCODING 69
SWIDTH 500 0
DWIDTH 17 0
BBX 14 19 2 0
BITMAP
FFFC
FFFC
E000
E000
E000
E000
E000
E000
FFF8
FFF8
E000
E000
E000
E000
E000
E000
E000
FFFC
FFFC
ENDCHAR
STARTCHAR 0046
ENCODING 70
SWIDTH 470 0
DWIDTH 16 0
BBX 13 19 2 0
BITMAP
FFF8
FFF8
E000
E000
E000
E000
E000
E000
FFF8
FFF8
E000
E000
E000
E000
E000
E000
E000
E000
E000
ENDCHAR
STARTCHAR 0047
ENCODING 71
SWIDTH 617 0
DWIDTH 21 0
BBX 17 20 2 0
BITMAP
1FFE00
3FFF00
700780
600380
E00380
E00380
E00000
E00000
E00000
E00000
E0FF80
E0FF80
E00380
E00380
E00380
E00380
E00380
700700
3FFF00
1FFC00
ENDCHAR
STARTCHAR 0048
ENCODING 72
SWIDTH 617 0
DWIDTH 21 0
BBX 17 19 2 0
BITMAP
E00380
E00380
E00380
E00380
E00380
E00380
E00380
E00380
FFFF80
FFFF80
E00380
E00380
E00380
E00380
E00380
E00380
E00380
E00380
E00380
ENDCHAR
STARTCHAR 0049
ENCODING 73
SWIDTH 205 0
DWIDTH 7 0
BBX 3 19 2 0
BITMAP
E0
E0
E0
E0
E0
E0
E0
E0
E0
E0
E0
E0
E0
E0
E0
E0
E0
E0
E0
ENDCHAR
STARTCHAR 004A
ENCODING 74
SWIDTH 470 0
DWIDTH 16 0
BBX 13 19 1 0
BITMAP
0038
0038
0038
0038
0038
0038
0038
0038
0038
0038
0038
0038
E038
E038
E038
E038
E078
7FF0
3FC0
ENDCHAR
STARTCHAR 004B
ENCODING 75
SWIDTH 558 0
DWIDTH 19 0
BBX 17 19 2 0
BITMAP
E00F00
E01E00
E03C00
E07800
E0F000
E1E000
E3C000
E78000
FF0000
FE0000
E70000
E38000
E1E000
E0F000
E07800
E03C00
E01E00
E00F00
E00780
ENDCHAR
STARTCHAR 004C
ENCODING 76
SWIDTH 470 0
DWIDTH 16 0
BBX 13 19 2 0
BITMAP
E000
E000
E000
E000
E000
E000
E000
E000
E000
E000
E000
E000
E000
E000
E000
E000
FFF8
FFF8
FFF8
ENDCHAR
STARTCHAR 004D
ENCODING 77
SWIDTH 794 0
DWIDTH 27 0
BBX 23 19 2 0
BITMAP
F8003E
F8003E
F8007E
FC007E
EC006E
EE00EE
E600CE
E701CE
E3018E
E3838E
E1830E
E1830E
E1C70E
E0C60E
E0EE0E
E06C0E
E07C0E
E0380E
E0380E
ENDCHAR
STARTCHAR 004E
ENCODING 78
SWIDTH 647 0
DWIDTH 22 0
BBX 18 19 2 0
BITMAP
F001C0
F801C0
FC01C0
EC01C0
EE01C0
E701C0
E301C0
E381C0
E1C1C0
E0C1C0
E0E1C0
E071C0
E031C0
E039C0
E01DC0
E00DC0
E00FC0
E007C0
E003C0
ENDCHAR
STARTCHAR 004F
ENCODING 79
SWIDTH 617 0
DWIDTH 21 0
BBX 17 19 2 0
BITMAP
1FFC00
3FFE00
700700
E00380
E00380
E00380
E00380
E00380
E00380
E00380
E00380
E00380
E00380
E00380
E00380
E00380
700700
3FFE00
0FFC00
ENDCHAR
STARTCHAR 0050
ENCODING 80
SWIDTH 558 0
DWIDTH 19 0
BBX 16 19 2 0
BITMAP
FFF8
FFFE
E00E
E007
E007
E007
E007
E007
E00F
FFFE
FFFC
E000
E000
E000
E000
E000
E000
E000
E000
ENDCHAR
STARTCHAR 0051
ENCODING 81
SWIDTH 617 0
DWIDTH 21 0
BBX 19 20 2 0
BITMAP
1FFC00
3FFE00
700700
E00380
E00380
E00380
E00380
E00380
E00380
E00380
E00380
E04380
E0E380
E07B80
E03F80
E00F80
6007C0
7007E0
3FFE40
0FFC00
ENDCHAR
STARTCHAR 0052
ENCODING 82
SWIDTH 558 0
DWIDTH 19 0
BBX 15 19 2 0
BITMAP
FFF8
FFFC
E00E
E006
E006
E006
E006
E006
E00E
FFFC
FFFC
E01E
E00E
E00E
E00E
E00E
E00E
E00E
E00E
ENDCHAR
STARTCHAR 0053
ENCODING 83
SWIDTH 529 0
DWIDTH 18 0
BBX 15 20 2 0
BITMAP
1FF0
7FFC
701C
E00E
E00E
E00E
E000
E000
F000
7FF0
3FFC
001E
000E
E00E
E00E
E00E
E00E
701E
7FFC
1FF8
ENDCHAR
STARTCHAR 0054
ENCODING 84
SWIDTH 500 0
DWIDTH 17 0
BBX 15 20 1 0
BITMAP
FFFE
FFFE
FFFE
0380
0380
0380
0380
0380
0380
0380
0380
0380
0380
0380
0380
0380
0380
0380
0380
0380
ENDCHAR
STARTCHAR 0055
ENCODING 85
SWIDTH 617 0
DWIDTH 21 0
BBX 17 19 2 0
BITMAP
E00380
E00380
E00380
E00380
E00380
E00380
E00380
E00380
E00380
E00380
E00380
E00380
E00380
E00380
E00380
E00380
700700
7FFF00
1FFC00
ENDCHAR
STARTCHAR 0056
ENCODING 86
SWIDTH 529 0
DWIDTH 18 0
BBX 18 19 0 0
BITMAP
E001C0
700180
700380
300380
380700
380700
180700
1C0E00
1C0E00
0E0C00
0E1C00
061C00
073800
073800
033800
03F000
03F000
01E000
01E000
ENDCHAR
STARTCHAR 0057
ENCODING 87
SWIDTH 882 0
DWIDTH 30 0
BBX 30 19 0 0
BITMAP
E007801C
60078038
700F8038
700FC038
300DC070
381CC070
381CE070
1818E060
1C1860E0
1C3870E0
0C3070C0
0E3031C0
0E7031C0
06703980
06603B80
07E01B80
03E01F00
03C01F00
03C00F00
ENDCHAR
STARTCHAR 0058
ENCODING 88
SWIDTH 529 0
DWIDTH 18 0
BBX 18 19 0 0
BITMAP
700380
380380
3C0700
1C0E00
0E1E00
071C00
073800
03F800
01F000
01F000
03F000
07B800
073C00
0E1C00
1E0E00
1C0700
380780
700380
F001C0
ENDCHAR
STARTCHAR 0059
ENCODING 89
SWIDTH 529 0
DWIDTH 18 0
BBX 17 19 0 0
BITMAP
E00380
700780
700700
380E00
1C1E00
1E1C00
0E3800
077000
07F000
03E000
01C000
01C000
01C000
01C000
01C000
01C000
01C000
01C000
01C000
ENDCHAR
STARTCHAR 005A
ENCODING 90
SWIDTH 529 0
DWIDTH 18 0
BBX 16 19 1 0
BITMAP
FFFF
FFFF
000E
001E
003C
0078
00F0
00E0
01C0
03C0
0780
0F00
0E00
1C00
3800
7800
F000
FFFF
FFFF
ENDCHAR
STARTCHAR 005B
ENCODING 91
SWIDTH 323 0
DWIDTH 11 0
BBX 6 31 3 -6
BITMAP
FC
FC
E0
E0
E0
E0
E0
E0
E0
E0
E0
E0
E0
E0
E0
E0
E0
E0
E0
E0
E0
E0
E0
E0
E0
E0
E0
E0
E0
FC
FC
ENDCHAR
STARTCHAR 005C
ENCODING 92
SWIDTH 588 0
DWIDTH 20 0
BBX 19 26 1 -3
BITMAP
C00000
C00000
600000
300000
300000
180000
0C0000
0C0000
060000
030000
030000
018000
00C000
00E000
006000
003000
003800
001800
000C00
000E00
000600
000300
000380
000180
0000C0
0000E0
ENDCHAR
STARTCHAR 005D
ENCODING 93
SWIDTH 323 0
DWIDTH 11 0
BBX 6 31 2 -6
BITMAP
FC
FC
1C
1C
1C
1C
1C
1C
1C
1C
1C
1C
1C
1C
1C
1C
1C
1C
1C
1C
1C
1C
1C
1C
1C
1C
1C
1C
1C
FC
FC
ENDCHAR
STARTCHAR 005E
ENCODING 94
SWIDTH 500 0
DWIDTH 17 0
BBX 15 10 1 13
BITMAP
0380
07C0
0EE0
0EE0
1C70
1830
3838
3018
701C
E00E
ENDCHAR
STARTCHAR 005F
ENCODING 95
SWIDTH 500 0
DWIDTH 17 0
BBX 17 2 0 -4
BITMAP
FFFF80
FFFF80
ENDCHAR
STARTCHAR 0060
ENCODING 96
SWIDTH 500 0
DWIDTH 17 0
BBX 6 5 4 22
BITMAP
40
F0
78
1C
04
ENDCHAR
STARTCHAR 0061
ENCODING 97
SWIDTH 558 0
DWIDTH 19 0
BBX 17 19 1 0
BITMAP
03C000
03E000
03E000
076000
077000
067000
0E3800
0E3800
1C1800
1C1C00
181C00
380E00
380E00
7FFE00
7FFF00
600700
E00380
E00380
C00180
ENDCHAR
STARTCHAR 0062
ENCODING 98
SWIDTH 558 0
DWIDTH 19 0
BBX 16 19 2 0
BITMAP
FFF8
FFFC
E01E
E00E
E00E
E00E
E00E
E01E
FFFC
FFFE
E00E
E007
E007
E007
E007
E007
E00F
FFFE
FFFC
ENDCHAR
STARTCHAR 0063
ENCODING 99
SWIDTH 558 0
DWIDTH 19 0
BBX 16 19 2 0
BITMAP
1FFC
3FFE
700F
E007
E007
E007
E000
E000
E000
E000
E000
E000
E007
E007
E007
E007
700E
3FFE
1FF8
ENDCHAR
STARTCHAR 0064
ENCODING 100
SWIDTH 617 0
DWIDTH 21 0
BBX 17 19 2 0
BITMAP
FFF800
FFFE00
E00F00
E00700
E00380
E00380
E00380
E00380
E00380
E00380
E00380
E00380
E00380
E00380
E00380
E00700
E00F00
FFFE00
FFF800
ENDCHAR
STARTCHAR 0065
ENCODING 101
SWIDTH 500 0
DWIDTH 17 0
BBX 14 19 2 0
BITMAP
FFFC
FFFC
E000
E000
E000
E000
E000
E000
FFF8
FFF8
E000
E000
E000
E000
E000
E000
E000
FFFC
FFFC
ENDCHAR
STARTCHAR 0066
ENCODING 102
SWIDTH 470 0
DWIDTH 16 0
BBX 13 19 2 0
BITMAP
FFF8
FFF8
E000
E000
E000
E000
E000
E000
FFF8
FFF8
E000
E000
E000
E000
E000
E000
E000
E000
E000
ENDCHAR
STARTCHAR 0067
ENCODING 103
SWIDTH 588 0
DWIDTH 20 0
BBX 17 19 2 0
BITMAP
1FFC00
3FFF00
700700
E00300
E00380
E00380
E00000
E00000
E00000
E0FF80
E0FF80
E00380
E00380
E00380
E00380
E00380
700700
3FFF00
1FFC00
ENDCHAR
STARTCHAR 0068
ENCODING 104
SWIDTH 617 0
DWIDTH 21 0
BBX 17 19 2 0
BITMAP
E00380
E00380
E00380
E00380
E00380
E00380
E00380
E00380
FFFF80
FFFF80
E00380
E00380
E00380
E00380
E00380
E00380
E00380
E00380
E00380
ENDCHAR
STARTCHAR 0069
ENCODING 105
SWIDTH 205 0
DWIDTH 7 0
BBX 3 19 2 0
BITMAP
E0
E0
E0
E0
E0
E0
E0
E0
E0
E0
E0
E0
E0
E0
E0
E0
E0
E0
E0
ENDCHAR
STARTCHAR 006A
ENCODING 106
SWIDTH 470 0
DWIDTH 16 0
BBX 13 19 1 0
BITMAP
0038
0038
0038
0038
0038
0038
0038
0038
0038
0038
0038
0038
E038
E038
E038
E038
F078
7FF0
3FE0
ENDCHAR
STARTCHAR 006B
ENCODING 107
SWIDTH 558 0
DWIDTH 19 0
BBX 17 19 2 0
BITMAP
E00F00
E01E00
E03C00
E07800
E0F000
E1E000
E3C000
E78000
FF0000
FF0000
E78000
E3C000
E1E000
E0F000
E07800
E03C00
E01E00
E00F00
E00780
ENDCHAR
STARTCHAR 006C
ENCODING 108
SWIDTH 470 0
DWIDTH 16 0
BBX 13 19 2 0
BITMAP
E000
E000
E000
E000
E000
E000
E000
E000
E000
E000
E000
E000
E000
E000
E000
E000
FFF8
FFF8
FFF8
ENDCHAR
STARTCHAR 006D
ENCODING 109
SWIDTH 794 0
DWIDTH 27 0
BBX 22 19 2 0
BITMAP
F8007C
F8007C
F800FC
FC00FC
EC00DC
EE01DC
E6019C
E6039C
E3039C
E3031C
E3871C
E1861C
E18E1C
E0CE1C
E0CC1C
E0FC1C
E0781C
E0781C
E0301C
ENDCHAR
STARTCHAR 006E
ENCODING 110
SWIDTH 647 0
DWIDTH 22 0
BBX 18 19 2 0
BITMAP
F801C0
F801C0
FC01C0
EE01C0
EE01C0
E701C0
E301C0
E381C0
E1C1C0
E0C1C0
E0E1C0
E071C0
E031C0
E039C0
E01DC0
E01DC0
E00FC0
E007C0
E007C0
ENDCHAR
STARTCHAR 006F
ENCODING 111
SWIDTH 588 0
DWIDTH 20 0
BBX 17 19 2 0
BITMAP
1FFC00
3FFE00
700700
E00300
C00380
C00380
C00380
C00380
C00380
C00380
C00380
C00380
C00380
C00380
C00380
E00380
700700
3FFE00
1FFC00
ENDCHAR
STARTCHAR 0070
ENCODING 112
SWIDTH 558 0
DWIDTH 19 0
BBX 16 19 2 0
BITMAP
FFF8
FFFE
E00E
E007
E007
E007
E007
E007
E007
E00E
FFFE
FFF8
E000
E000
E000
E000
E000
E000
E000
ENDCHAR
STARTCHAR 0071
ENCODING 113
SWIDTH 588 0
DWIDTH 20 0
BBX 18 19 2 0
BITMAP
1FFC00
3FFE00
700700
E00300
C00380
C00380
C00380
C00380
C00380
C00380
C00380
C0E380
C0F380
C03F80
C01F80
E00780
7007C0
3FFEC0
1FF800
ENDCHAR
STARTCHAR 0072
ENCODING 114
SWIDTH 588 0
DWIDTH 20 0
BBX 16 19 2 0
BITMAP
FFF8
FFFE
E00F
E007
E007
E007
E007
E007
E00E
FFFE
FFFC
E00E
E007
E007
E007
E007
E007
E007
E007
ENDCHAR
STARTCHAR 0073
ENCODING 115
SWIDTH 529 0
DWIDTH 18 0
BBX 16 19 1 0
BITMAP
0FF8
3FFE
780E
7006
7006
7000
7000
7800
3FF8
3FFE
07FF
0007
0007
E007
6007
6007
700F
7FFE
1FF8
ENDCHAR
STARTCHAR 0074
ENCODING 116
SWIDTH 500 0
DWIDTH 17 0
BBX 15 19 1 0
BITMAP
FFFE
FFFE
FFFE
0380
0380
0380
0380
0380
0380
0380
0380
0380
0380
0380
0380
0380
0380
0380
0380
ENDCHAR
STARTCHAR 0075
ENCODING 117
SWIDTH 617 0
DWIDTH 21 0
BBX 16 19 2 0
BITMAP
E007
E007
E007
E007
E007
E007
E007
E007
E007
E007
E007
E007
E007
E007
E007
E007
700F
7FFE
1FF8
ENDCHAR
STARTCHAR 0076
ENCODING 118
SWIDTH 529 0
DWIDTH 18 0
BBX 18 19 0 0
BITMAP
E001C0
700180
700380
300380
380700
380700
180700
1C0E00
1C0E00
0E0C00
0E1C00
061C00
073800
073800
033800
03F000
03F000
01E000
01E000
ENDCHAR
STARTCHAR 0077
ENCODING 119
SWIDTH 882 0
DWIDTH 30 0
BBX 30 19 0 0
BITMAP
E007801C
60078038
700F8038
700FC038
300DC070
381CC070
381CE070
1818E060
1C1860E0
1C3870E0
0C3070C0
0E3031C0
0E7031C0
06703980
06603B80
07E01B80
03E01F00
03C01F00
03C00F00
ENDCHAR
STARTCHAR 0078
ENCODING 120
SWIDTH 529 0
DWIDTH 18 0
BBX 18 19 0 0
BITMAP
700380
380380
3C0700
1C0E00
0E1E00
071C00
073800
03F800
01F000
01F000
03F000
07B800
073C00
0E1C00
1E0E00
1C0700
380780
700380
F001C0
ENDCHAR
STARTCHAR 0079
ENCODING 121
SWIDTH 529 0
DWIDTH 18 0
BBX 17 19 0 0
BITMAP
E00380
700780
700700
380E00
1C1E00
1E1C00
0E3800
077000
07F000
03E000
01C000
01C000
01C000
01C000
01C000
01C000
01C000
01C000
01C000
ENDCHAR
STARTCHAR 007A
ENCODING 122
SWIDTH 529 0
DWIDTH 18 0
BBX 16 19 1 0
BITMAP
FFFF
FFFF
000E
001E
003C
0038
0070
00E0
01C0
03C0
0780
0700
0E00
1C00
3800
7000
F000
FFFF
FFFF
ENDCHAR
STARTCHAR 007B
ENCODING 123
SWIDTH 323 0
DWIDTH 11 0
BBX 8 31 1 -6
BITMAP
0F
1F
3C
38
38
38
38
38
38
38
38
38
38
78
F0
C0
F0
78
38
38
38
38
38
38
38
38
38
38
3C
1F
0F
ENDCHAR
STARTCHAR 007C
ENCODING 124
SWIDTH 294 0
DWIDTH 10 0
BBX 3 29 3 -6
BITMAP
E0
E0
E0
E0
E0
E0
E0
E0
E0
E0
E0
E0
E0
E0
E0
E0
E0
E0
E0
E0
E0
E0
E0
E0
E0
E0
E0
E0
E0
ENDCHAR
STARTCHAR 007D
ENCODING 125
SWIDTH 323 0
DWIDTH 11 0
BBX 8 31 2 -6
BITMAP
F0
F8
3C
1C
1C
1C
1C
1C
1C
1C
1C
1C
1C
1E
0F
03
0F
1E
1C
1C
1C
1C
1C
1C
1C
1C
1C
1C
3C
F8
F0
ENDCHAR
STARTCHAR 007E
ENCODING 126
SWIDTH 676 0
DWIDTH 23 0
BBX 16 5 3 19
BITMAP
1E00
3F03
63C7
E0FE
403C
ENDCHAR
STARTCHAR 00A0
ENCODING 160
SWIDTH 294 0
DWIDTH 10 0
BBX 0 0 0 0
BITMAP
ENDCHAR
STARTCHAR 00A1
ENCODING 161
SWIDTH 264 0
DWIDTH 9 0
BBX 3 22 3 -3
BITMAP
E0
E0
E0
E0
00
00
E0
E0
E0
E0
E0
E0
E0
E0
E0
E0
E0
E0
E0
E0
E0
E0
ENDCHAR
STARTCHAR 00A2
ENCODING 162
SWIDTH 470 0
DWIDTH 16 0
BBX 12 18 2 0
BITMAP
0600
0600
3FC0
7FE0
7670
E670
E670
E600
E600
E600
E600
E630
E670
7670
7FE0
3FC0
0600
0600
ENDCHAR
STARTCHAR 00A3
ENCODING 163
SWIDTH 529 0
DWIDTH 18 0
BBX 16 19 1 0
BITMAP
0FF8
1FFC
3C0E
380E
380E
3800
3800
3800
3800
FFC0
FFC0
3800
3800
3800
3800
3800
7000
FFFF
FFFF
ENDCHAR
STARTCHAR 00A4
ENCODING 164
SWIDTH 647 0
DWIDTH 22 0
BBX 19 18 2 1
BITMAP
C000C0
E3F1C0
7FFF80
3E1F00
380700
300300
600180
600180
600180
600180
600180
300300
380700
1C0E00
3FFF00
63F180
C000E0
000040
ENDCHAR
STARTCHAR 00A5
ENCODING 165
SWIDTH 500 0
DWIDTH 17 0
BBX 16 20 1 0
BITMAP
E007
600E
701E
381C
3838
1C38
7C7E
7EFE
07E0
07C0
07C0
7FFE
7FFE
0380
0380
0380
0380
0380
0380
0380
ENDCHAR
STARTCHAR 00A6
ENCODING 166
SWIDTH 294 0
DWIDTH 10 0
BBX 3 29 3 -6
BITMAP
E0
E0
E0
E0
E0
E0
E0
E0
E0
E0
E0
00
00
00
00
00
00
00
E0
E0
E0
E0
E0
E0
E0
E0
E0
E0
E0
ENDCHAR
STARTCHAR 00A7
ENCODING 167
SWIDTH 558 0
DWIDTH 19 0
BBX 16 29 2 -6
BITMAP
1FF8
3FFC
780E
700E
7006
7006
7000
7800
7F00
3FE0
63FC
C03E
C007
C003
C003
E003
FC03
7F86
1FFC
03FE
003E
000F
0007
C007
C007
E007
F00E
7FFE
1FF8
ENDCHAR
STARTCHAR 00A8
ENCODING 168
SWIDTH 500 0
DWIDTH 17 0
BBX 9 3 4 22
BITMAP
E380
E380
E380
ENDCHAR
STARTCHAR 00A9
ENCODING 169
SWIDTH 735 0
DWIDTH 25 0
BBX 23 23 1 0
BITMAP
00FE00
03FF80
0F81E0
1C0070
380038
30FF18
61FF8C
63818C
C3018E
C30006
C30006
C30006
C30006
C30006
C30186
63818C
61FF8C
30FF18
380038
1C0070
0F01E0
03FF80
00FE00
ENDCHAR
STARTCHAR 00AA
ENCODING 170
SWIDTH 382 0
DWIDTH 13 0
BBX 10 11 1 8
BITMAP
3F00
7FC0
60C0
00C0
7FC0
FFC0
C0C0
C0C0
C0C0
FFC0
3FC0
ENDCHAR
STARTCHAR 00AB
ENCODING 171
SWIDTH 470 0
DWIDTH 16 0
BBX 12 15 2 2
BITMAP
1860
1870
38E0
30E0
70C0
61C0
E180
C380
E180
61C0
70C0
30E0
3860
1C70
0830
ENDCHAR
STARTCHAR 00AC
ENCODING 172
SWIDTH 500 0
DWIDTH 17 0
BBX 15 9 1 0
BITMAP
FFFE
FFFE
000E
000E
000E
000E
000E
000E
000E
ENDCHAR
STARTCHAR 00AD
ENCODING 173
SWIDTH 264 0
DWIDTH 9 0
BBX 8 3 0 8
BITMAP
FF
FF
FF
ENDCHAR
STARTCHAR 00AE
ENCODING 174
SWIDTH 735 0
DWIDTH 25 0
BBX 23 23 2 0
BITMAP
00FE00
03FF80
0F81E0
1C0070
380038
33FE18
63FF0C
63030C
C3030E
C30306
C30306
C3FE06
C3FE06
C30306
C30306
63030C
63030C
330318
380038
1C0070
0F01E0
03FF80
00FE00
ENDCHAR
STARTCHAR 00AF
ENCODING 175
SWIDTH 500 0
DWIDTH 17 0
BBX 17 2 0 25
BITMAP
FFFF80
FFFF80
ENDCHAR
STARTCHAR 00B0
ENCODING 176
SWIDTH 382 0
DWIDTH 13 0
BBX 9 9 2 14
BITMAP
3E00
7F00
E380
C180
C180
C180
E380
7F00
3E00
ENDCHAR
STARTCHAR 00B1
ENCODING 177
SWIDTH 529 0
DWIDTH 18 0
BBX 16 19 1 0
BITMAP
01C0
01C0
01C0
01C0
01C0
01C0
FFFF
FFFF
01C0
01C0
01C0
01C0
01C0
01C0
0000
0000
0000
FFFF
FFFF
ENDCHAR
STARTCHAR 00B2
ENCODING 178
SWIDTH 411 0
DWIDTH 14 0
BBX 11 13 1 6
BITMAP
3F80
7FC0
C060
C060
C060
0060
03E0
7F80
F000
C000
C000
FFE0
FFE0
ENDCHAR
STARTCHAR 00B3
ENCODING 179
SWIDTH 411 0
DWIDTH 14 0
BBX 10 14 2 6
BITMAP
3F00
FFC0
C0C0
C0C0
C0C0
00C0
1F80
1F80
00C0
C0C0
C0C0
C0C0
FFC0
7F00
ENDCHAR
STARTCHAR 00B4
ENCODING 180
SWIDTH 500 0
DWIDTH 17 0
BBX 6 5 7 22
BITMAP
08
3C
78
E0
80
ENDCHAR
STARTCHAR 00B5
ENCODING 181
SWIDTH 588 0
DWIDTH 20 0
BBX 16 22 2 -5
BITMAP
E007
E007
E007
E007
E007
E007
E007
E007
E007
E007
E007
E007
E007
E007
F00F
FFFE
DFF8
C000
C000
C000
C000
C000
ENDCHAR
STARTCHAR 00B6
ENCODING 182
SWIDTH 617 0
DWIDTH 21 0
BBX 16 26 2 -3
BITMAP
1FFF
3FFF
7FE7
7FE7
FFE7
FFE7
FFE7
FFE7
FFE7
FFE7
FFE7
FFE7
7FE7
7FE7
3FE7
0FE7
00E7
00E7
00E7
00E7
00E7
00E7
00E7
00E7
00E7
00E7
ENDCHAR
STARTCHAR 00B7
ENCODING 183
SWIDTH 205 0
DWIDTH 7 0
BBX 3 4 2 7
BITMAP
E0
E0
E0
E0
ENDCHAR
STARTCHAR 00B8
ENCODING 184
SWIDTH 500 0
DWIDTH 17 0
BBX 5 6 6 -7
BITMAP
18
18
38
F8
F0
E0
ENDCHAR
STARTCHAR 00B9
ENCODING 185
SWIDTH 411 0
DWIDTH 14 0
BBX 7 14 3 6
BITMAP
0E
1E
3E
76
E6
46
06
06
06
06
06
06
06
06
ENDCHAR
STARTCHAR 00BA
ENCODING 186
SWIDTH 382 0
DWIDTH 13 0
BBX 11 11 1 8
BITMAP
3F80
7FC0
E0E0
C060
C060
C060
C060
C060
E0E0
7FC0
3F80
ENDCHAR
STARTCHAR 00BB
ENCODING 187
SWIDTH 470 0
DWIDTH 16 0
BBX 12 15 2 2
BITMAP
6180
61C0
70C0
30E0
3860
1870
1C70
1C30
1C70
3860
30E0
70C0
61C0
E180
4180
ENDCHAR
STARTCHAR 00BC
ENCODING 188
SWIDTH 941 0
DWIDTH 32 0
BBX 29 20 1 0
BITMAP
0E003000
1E007000
3E006000
7600E000
E600C000
4601C000
060180E0
060381E0
06030360
06060760
06060E60
060C0C60
060C1860
06183060
00187060
00307FF8
00707FF8
00600060
00E00060
00C00060
ENDCHAR
STARTCHAR 00BD
ENCODING 189
SWIDTH 970 0
DWIDTH 33 0
BBX 29 20 2 0
BITMAP
0E006000
1E00C000
3E00C000
76018000
E6018000
46030000
06030FE0
06061FF0
060E3018
060C3018
061C3018
06180018
06380018
063007F0
00601FE0
00603800
00C03000
00C03000
01803FF8
01803FF8
ENDCHAR
STARTCHAR 00BE
ENCODING 190
SWIDTH 941 0
DWIDTH 32 0
BBX 30 20 1 0
BITMAP
3F801800
FFC01800
E0603000
E0603000
E0606000
0060E000
0FC0C070
0FC1C0F0
006181F0
C06303B0
C0630330
C0660630
FFE60C30
7F8C1C30
001C3830
00183FFC
00383FFC
00300030
00600030
00600030
ENDCHAR
STARTCHAR 00BF
ENCODING 191
SWIDTH 470 0
DWIDTH 16 0
BBX 12 23 2 -3
BITMAP
0700
0700
0700
0700
0000
0000
0000
0380
0380
0380
0380
0780
3F00
7E00
F000
E000
E000
E030
E030
E030
F070
7FE0
3FC0
ENDCHAR
STARTCHAR 00C0
ENCODING 192
SWIDTH 558 0
DWIDTH 19 0
BBX 17 27 1 1
BITMAP
040000
0F0000
078000
01C000
004000
000000
000000
000000
03C000
03E000
03E000
076000
077000
067000
0E3800
0E3800
1C1800
1C1C00
181C00
380E00
380E00
7FFE00
7FFF00
600700
E00380
E00380
C00180
ENDCHAR
STARTCHAR 00C1
ENCODING 193
SWIDTH 558 0
DWIDTH 19 0
BBX 17 27 1 1
BITMAP
001000
007800
00F000
01C000
010000
000000
000000
000000
03C000
03E000
03E000
076000
077000
067000
0E3800
0E3800
1C1800
1C1C00
181C00
380E00
380E00
7FFE00
7FFF00
600700
E00380
E00380
C00180
ENDCHAR
STARTCHAR 00C2
ENCODING 194
SWIDTH 558 0
DWIDTH 19 0
BBX 17 27 1 0
BITMAP
008000
03E000
077000
0E3800
080800
000000
000000
000000
03C000
03E000
03E000
076000
077000
067000
0E3800
0E3800
1C1800
1C1C00
181C00
380E00
380E00
7FFE00
7FFF00
600700
E00380
E00380
C00180
ENDCHAR
STARTCHAR 00C3
ENCODING 195
SWIDTH 558 0
DWIDTH 19 0
BBX 17 26 1 0
BITMAP
078800
0FF800
08F000
000000
000000
000000
000000
03C000
03E000
03E000
076000
077000
067000
0E3800
0E3800
1C1800
1C1C00
181C00
380E00
380E00
7FFE00
7FFF00
600700
E00380
E00380
C00180
ENDCHAR
STARTCHAR 00C4
ENCODING 196
SWIDTH 558 0
DWIDTH 19 0
BBX 17 25 1 0
BITMAP
0E3800
0E3800
0E3800
000000
000000
000000
03C000
03E000
03E000
076000
077000
067000
0E3800
0E3800
1C1800
1C1C00
181C00
380E00
380E00
7FFE00
7FFF00
600700
E00380
E00380
C00180
ENDCHAR
STARTCHAR 00C5
ENCODING 197
SWIDTH 558 0
DWIDTH 19 0
BBX 17 27 1 0
BITMAP
01C000
036000
022000
022000
036000
01C000
000000
000000
03C000
03E000
03E000
076000
077000
067000
0E3800
0E3800
1C1800
1C1C00
181C00
380E00
380E00
7FFE00
7FFF00
600700
E00380
E00380
C00180
ENDCHAR
STARTCHAR 00C6
ENCODING 198
SWIDTH 852 0
DWIDTH 29 0
BBX 27 19 0 0
BITMAP
001FFFE0
003FFFE0
00738000
00738000
00E38000
00E38000
01C38000
01C38000
0383FFE0
0703FFE0
07038000
0E038000
0E038000
1FFF8000
1FFF8000
38038000
78038000
7003FFE0
E003FFE0
ENDCHAR
STARTCHAR 00C7
ENCODING 199
SWIDTH 558 0
DWIDTH 19 0
BBX 17 27 1 -7
BITMAP
1FFC00
3FFF00
700780
E00380
E00380
E00380
E00000
E00000
E00000
E00000
E00000
E00000
E00000
E00380
E00380
E00380
F00380
700780
3FFF00
1FFE00
006000
006000
006000
00E000
03E000
03C000
038000
ENDCHAR
STARTCHAR 00C8
ENCODING 200
SWIDTH 500 0
DWIDTH 17 0
BBX 14 27 2 1
BITMAP
1000
3C00
1E00
0700
0100
0000
0000
0000
FFFC
FFFC
E000
E000
E000
E000
E000
E000
FFF8
FFF8
E000
E000
E000
E000
E000
E000
E000
FFFC
FFFC
ENDCHAR
STARTCHAR 00C9
ENCODING 201
SWIDTH 500 0
DWIDTH 17 0
BBX 14 27 2 1
BITMAP
0040
01E0
03C0
0700
0400
0000
0000
0000
FFFC
FFFC
E000
E000
E000
E000
E000
E000
FFF8
FFF8
E000
E000
E000
E000
E000
E000
E000
FFFC
FFFC
ENDCHAR
STARTCHAR 00CA
ENCODING 202
SWIDTH 500 0
DWIDTH 17 0
BBX 14 27 2 0
BITMAP
0200
0F80
1DC0
38E0
2020
0000
0000
0000
FFFC
FFFC
E000
E000
E000
E000
E000
E000
FFF8
FFF8
E000
E000
E000
E000
E000
E000
E000
FFFC
FFFC
ENDCHAR
STARTCHAR 00CB
ENCODING 203
SWIDTH 500 0
DWIDTH 17 0
BBX 14 25 2 0
BITMAP
38E0
38E0
38E0
0000
0000
0000
FFFC
FFFC
E000
E000
E000
E000
E000
E000
FFF8
FFF8
E000
E000
E000
E000
E000
E000
E000
FFFC
FFFC
ENDCHAR
STARTCHAR 00CC
ENCODING 204
SWIDTH 205 0
DWIDTH 7 0
BBX 6 27 -1 1
BITMAP
40
F0
78
1C
04
00
00
00
1C
1C
1C
1C
1C
1C
1C
1C
1C
1C
1C
1C
1C
1C
1C
1C
1C
1C
1C
ENDCHAR
STARTCHAR 00CD
ENCODING 205
SWIDTH 205 0
DWIDTH 7 0
BBX 6 27 2 1
BITMAP
08
3C
78
E0
80
00
00
00
E0
E0
E0
E0
E0
E0
E0
E0
E0
E0
E0
E0
E0
E0
E0
E0
E0
E0
E0
ENDCHAR
STARTCHAR 00CE
ENCODING 206
SWIDTH 205 0
DWIDTH 7 0
BBX 9 27 -1 0
BITMAP
0800
1E00
3F00
E380
C080
0000
0000
0000
1C00
1C00
1C00
1C00
1C00
1C00
1C00
1C00
1C00
1C00
1C00
1C00
1C00
1C00
1C00
1C00
1C00
1C00
1C00
ENDCHAR
STARTCHAR 00CF
ENCODING 207
SWIDTH 205 0
DWIDTH 7 0
BBX 7 25 0 0
BITMAP
EE
EE
EE
00
00
00
38
38
38
38
38
38
38
38
38
38
38
38
38
38
38
38
38
38
38
ENDCHAR
STARTCHAR 00D0
ENCODING 208
SWIDTH 647 0
DWIDTH 22 0
BBX 19 19 1 0
BITMAP
3FFE00
3FFF80
3803C0
3801C0
3800E0
3800E0
3800E0
3800E0
FFC0E0
FFC0E0
3800E0
3800E0
3800E0
3800E0
3800E0
3801C0
3803C0
3FFF80
3FFE00
ENDCHAR
STARTCHAR 00D1
ENCODING 209
SWIDTH 647 0
DWIDTH 22 0
BBX 18 26 2 0
BITMAP
078800
0FF800
08F000
000000
000000
000000
000000
F801C0
F801C0
FC01C0
EE01C0
EE01C0
E701C0
E301C0
E381C0
E1C1C0
E0C1C0
E0E1C0
E071C0
E031C0
E039C0
E01DC0
E01DC0
E00FC0
E007C0
E007C0
ENDCHAR
STARTCHAR 00D2
ENCODING 210
SWIDTH 588 0
DWIDTH 20 0
BBX 17 27 2 1
BITMAP
040000
0F0000
078000
01C000
004000
000000
000000
000000
1FFC00
3FFE00
700700
E00300
C00380
C00380
C00380
C00380
C00380
C00380
C00380
C00380
C00380
C00380
C00380
E00380
700700
3FFE00
1FFC00
ENDCHAR
STARTCHAR 00D3
ENCODING 211
SWIDTH 588 0
DWIDTH 20 0
BBX 17 27 2 1
BITMAP
001000
007800
00F000
01C000
010000
000000
000000
000000
1FFC00
3FFE00
700700
E00300
C00380
C00380
C00380
C00380
C00380
C00380
C00380
C00380
C00380
C00380
C00380
E00380
700700
3FFE00
1FFC00
ENDCHAR
STARTCHAR 00D4
ENCODING 212
SWIDTH 588 0
DWIDTH 20 0
BBX 17 27 2 0
BITMAP
008000
03E000
077000
0E3800
080800
000000
000000
000000
1FFC00
3FFE00
700700
E00300
C00380
C00380
C00380
C00380
C00380
C00380
C00380
C00380
C00380
C00380
C00380
E00380
700700
3FFE00
1FFC00
ENDCHAR
STARTCHAR 00D5
ENCODING 213
SWIDTH 588 0
DWIDTH 20 0
BBX 17 26 2 0
BITMAP
078800
0FF800
08F000
000000
000000
000000
000000
1FFC00
3FFE00
700700
E00300
C00380
C00380
C00380
C00380
C00380
C00380
C00380
C00380
C00380
C00380
C00380
E00380
700700
3FFE00
1FFC00
ENDCHAR
STARTCHAR 00D6
ENCODING 214
SWIDTH 588 0
DWIDTH 20 0
BBX 17 25 2 0
BITMAP
0E3800
0E3800
0E3800
000000
000000
000000
1FFC00
3FFE00
700700
E00300
C00380
C00380
C00380
C00380
C00380
C00380
C00380
C00380
C00380
C00380
C00380
E00380
700700
3FFE00
1FFC00
ENDCHAR
STARTCHAR 00D7
ENCODING 215
SWIDTH 529 0
DWIDTH 18 0
BBX 14 15 2 2
BITMAP
4008
E01C
F03C
7878
3CF0
1FE0
0FC0
0780
0FC0
1FE0
3CF0
7878
F03C
E01C
4008
ENDCHAR
STARTCHAR 00D8
ENCODING 216
SWIDTH 558 0
DWIDTH 19 0
BBX 17 19 1 0
BITMAP
1FF880
3FFF80
700700
E00780
E00F80
E01B80
E03380
E06380
E0C380
E1C380
E18380
E30380
E60380
EC0380
F80380
F00380
700700
FFFE00
9FFC00
ENDCHAR
STARTCHAR 00D9
ENCODING 217
SWIDTH 617 0
DWIDTH 21 0
BBX 16 27 2 1
BITMAP
0400
0F00
0780
01C0
0040
0000
0000
0000
E007
E007
E007
E007
E007
E007
E007
E007
E007
E007
E007
E007
E007
E007
E007
E007
700F
7FFE
1FF8
ENDCHAR
STARTCHAR 00DA
ENCODING 218
SWIDTH 617 0
DWIDTH 21 0
BBX 16 27 2 1
BITMAP
0010
0078
00F0
01C0
0100
0000
0000
0000
E007
E007
E007
E007
E007
E007
E007
E007
E007
E007
E007
E007
E007
E007
E007
E007
700F
7FFE
1FF8
ENDCHAR
STARTCHAR 00DB
ENCODING 219
SWIDTH 617 0
DWIDTH 21 0
BBX 16 27 2 0
BITMAP
0080
03E0
0770
0E38
0808
0000
0000
0000
E007
E007
E007
E007
E007
E007
E007
E007
E007
E007
E007
E007
E007
E007
E007
E007
700F
7FFE
1FF8
ENDCHAR
STARTCHAR 00DC
ENCODING 220
SWIDTH 617 0
DWIDTH 21 0
BBX 16 25 2 0
BITMAP
0E38
0E38
0E38
0000
0000
0000
E007
E007
E007
E007
E007
E007
E007
E007
E007
E007
E007
E007
E007
E007
E007
E007
700F
7FFE
1FF8
ENDCHAR
STARTCHAR 00DD
ENCODING 221
SWIDTH 529 0
DWIDTH 18 0
BBX 17 27 0 1
BITMAP
001000
007800
00F000
01C000
010000
000000
000000
000000
E00380
700780
700700
380E00
1C1E00
1E1C00
0E3800
077800
07F000
03E000
01C000
01C000
01C000
01C000
01C000
01C000
01C000
01C000
01C000
ENDCHAR
STARTCHAR 00DE
ENCODING 222
SWIDTH 558 0
DWIDTH 19 0
BBX 16 19 2 0
BITMAP
E000
E000
E000
FFF8
FFFE
E00E
E007
E007
E007
E007
E007
E007
E00E
FFFE
FFFC
E000
E000
E000
E000
ENDCHAR
STARTCHAR 00DF
ENCODING 223
SWIDTH 558 0
DWIDTH 19 0
BBX 15 21 2 -1
BITMAP
3FF0
7FF8
F01C
E01C
E00C
E00C
E00C
E01C
E01C
E3F8
E3F8
E01C
E00E
E00E
E00E
E00E
E00E
E01E
E7FC
E7F8
E000
ENDCHAR
STARTCHAR 00E0
ENCODING 224
SWIDTH 558 0
DWIDTH 19 0
BBX 17 27 1 1
BITMAP
040000
0F0000
078000
01C000
004000
000000
000000
000000
03C000
03E000
03E000
076000
077000
067000
0E3800
0E3800
1C1800
1C1C00
181C00
380E00
380E00
7FFE00
7FFF00
600700
E00380
E00380
C00180
ENDCHAR
STARTCHAR 00E1
ENCODING 225
SWIDTH 558 0
DWIDTH 19 0
BBX 17 27 1 1
BITMAP
001000
007800
00F000
01C000
010000
000000
000000
000000
03C000
03E000
03E000
076000
077000
067000
0E3800
0E3800
1C1800
1C1C00
181C00
380E00
380E00
7FFE00
7FFF00
600700
E00380
E00380
C00180
ENDCHAR
STARTCHAR 00E2
ENCODING 226
SWIDTH 558 0
DWIDTH 19 0
BBX 17 27 1 0
BITMAP
008000
03E000
077000
0E3800
080800
000000
000000
000000
03C000
03E000
03E000
076000
077000
067000
0E3800
0E3800
1C1800
1C1C00
181C00
380E00
380E00
7FFE00
7FFF00
600700
E00380
E00380
C00180
ENDCHAR
STARTCHAR 00E3
ENCODING 227
SWIDTH 558 0
DWIDTH 19 0
BBX 17 26 1 0
BITMAP
078800
0FF800
08F000
000000
000000
000000
000000
03C000
03E000
03E000
076000
077000
067000
0E3800
0E3800
1C1800
1C1C00
181C00
380E00
380E00
7FFE00
7FFF00
600700
E00380
E00380
C00180
ENDCHAR
STARTCHAR 00E4
ENCODING 228
SWIDTH 558 0
DWIDTH 19 0
BBX 17 25 1 0
BITMAP
0E3800
0E3800
0E3800
000000
000000
000000
03C000
03E000
03E000
076000
077000
067000
0E3800
0E3800
1C1800
1C1C00
181C00
380E00
380E00
7FFE00
7FFF00
600700
E00380
E00380
C00180
ENDCHAR
STARTCHAR 00E5
ENCODING 229
SWIDTH 558 0
DWIDTH 19 0
BBX 17 27 1 0
BITMAP
01C000
036000
022000
022000
036000
01C000
000000
000000
03C000
03E000
03E000
076000
077000
067000
0E3800
0E3800
1C1800
1C1C00
181C00
380E00
380E00
7FFE00
7FFF00
600700
E00380
E00380
C00180
ENDCHAR
STARTCHAR 00E6
ENCODING 230
SWIDTH 852 0
DWIDTH 29 0
BBX 27 19 0 0
BITMAP
001FFFE0
003FFFE0
00738000
00738000
00E38000
00E38000
01C38000
01C38000
0383FFE0
0703FFE0
07038000
0E038000
0E038000
1FFF8000
1FFF8000
38038000
78038000
7003FFE0
E003FFE0
ENDCHAR
STARTCHAR 00E7
ENCODING 231
SWIDTH 558 0
DWIDTH 19 0
BBX 17 27 1 -7
BITMAP
1FFC00
3FFF00
700780
E00380
E00380
E00380
E00000
E00000
E00000
E00000
E00000
E00000
E00000
E00380
E00380
E00380
F00380
700780
3FFF00
1FFE00
006000
006000
006000
00E000
03E000
03C000
038000
ENDCHAR
STARTCHAR 00E8
ENCODING 232
SWIDTH 500 0
DWIDTH 17 0
BBX 14 27 2 1
BITMAP
1000
3C00
1E00
0700
0100
0000
0000
0000
FFFC
FFFC
E000
E000
E000
E000
E000
E000
FFF8
FFF8
E000
E000
E000
E000
E000
E000
E000
FFFC
FFFC
ENDCHAR
STARTCHAR 00E9
ENCODING 233
SWIDTH 500 0
DWIDTH 17 0
BBX 14 27 2 1
BITMAP
0040
01E0
03C0
0700
0400
0000
0000
0000
FFFC
FFFC
E000
E000
E000
E000
E000
E000
FFF8
FFF8
E000
E000
E000
E000
E000
E000
E000
FFFC
FFFC
ENDCHAR
STARTCHAR 00EA
ENCODING 234
SWIDTH 500 0
DWIDTH 17 0
BBX 14 27 2 0
BITMAP
0200
0F80
1DC0
38E0
2020
0000
0000
0000
FFFC
FFFC
E000
E000
E000
E000
E000
E000
FFF8
FFF8
E000
E000
E000
E000
E000
E000
E000
FFFC
FFFC
ENDCHAR
STARTCHAR 00EB
ENCODING 235
SWIDTH 500 0
DWIDTH 17 0
BBX 14 25 2 0
BITMAP
38E0
38E0
38E0
0000
0000
0000
FFFC
FFFC
E000
E000
E000
E000
E000
E000
FFF8
FFF8
E000
E000
E000
E000
E000
E000
E000
FFFC
FFFC
ENDCHAR
STARTCHAR 00EC
ENCODING 236
SWIDTH 205 0
DWIDTH 7 0
BBX 6 27 -1 1
BITMAP
40
F0
78
1C
04
00
00
00
1C
1C
1C
1C
1C
1C
1C
1C
1C
1C
1C
1C
1C
1C
1C
1C
1C
1C
1C
ENDCHAR
STARTCHAR 00ED
ENCODING 237
SWIDTH 205 0
DWIDTH 7 0
BBX 6 27 2 1
BITMAP
08
3C
78
E0
80
00
00
00
E0
E0
E0
E0
E0
E0
E0
E0
E0
E0
E0
E0
E0
E0
E0
E0
E0
E0
E0
ENDCHAR
STARTCHAR 00EE
ENCODING 238
SWIDTH 205 0
DWIDTH 7 0
BBX 9 27 -1 0
BITMAP
0800
1E00
3F00
E380
C080
0000
0000
0000
1C00
1C00
1C00
1C00
1C00
1C00
1C00
1C00
1C00
1C00
1C00
1C00
1C00
1C00
1C00
1C00
1C00
1C00
1C00
ENDCHAR
STARTCHAR 00EF
ENCODING 239
SWIDTH 205 0
DWIDTH 7 0
BBX 7 25 0 0
BITMAP
EE
EE
EE
00
00
00
38
38
38
38
38
38
38
38
38
38
38
38
38
38
38
38
38
38
38
ENDCHAR
STARTCHAR 00F0
ENCODING 240
SWIDTH 617 0
DWIDTH 21 0
BBX 18 19 1 0
BITMAP
3FFC00
3FFF00
380780
380380
3801C0
3801C0
3801C0
3801C0
FF81C0
FF81C0
3801C0
3801C0
3801C0
3801C0
3801C0
380380
380780
3FFF00
3FFC00
ENDCHAR
STARTCHAR 00F1
ENCODING 241
SWIDTH 647 0
DWIDTH 22 0
BBX 18 26 2 0
BITMAP
078800
0FF800
08F000
000000
000000
000000
000000
F801C0
F801C0
FC01C0
EE01C0
EE01C0
E701C0
E301C0
E381C0
E1C1C0
E0C1C0
E0E1C0
E071C0
E031C0
E039C0
E01DC0
E01DC0
E00FC0
E007C0
E007C0
ENDCHAR
STARTCHAR 00F2
ENCODING 242
SWIDTH 588 0
DWIDTH 20 0
BBX 17 27 2 1
BITMAP
040000
0F0000
078000
01C000
004000
000000
000000
000000
1FFC00
3FFE00
700700
E00300
C00380
C00380
C00380
C00380
C00380
C00380
C00380
C00380
C00380
C00380
C00380
E00380
700700
3FFE00
1FFC00
ENDCHAR
STARTCHAR 00F3
ENCODING 243
SWIDTH 588 0
DWIDTH 20 0
BBX 17 27 2 1
BITMAP
001000
007800
00F000
01C000
010000
000000
000000
000000
1FFC00
3FFE00
700700
E00300
C00380
C00380
C00380
C00380
C00380
C00380
C00380
C00380
C00380
C00380
C00380
E00380
700700
3FFE00
1FFC00
ENDCHAR
STARTCHAR 00F4
ENCODING 244
SWIDTH 588 0
DWIDTH 20 0
BBX 17 27 2 0
BITMAP
008000
03E000
077000
0E3800
080800
000000
000000
000000
1FFC00
3FFE00
700700
E00300
C00380
C00380
C00380
C00380
C00380
C00380
C00380
C00380
C00380
C00380
C00380
E00380
700700
3FFE00
1FFC00
ENDCHAR
STARTCHAR 00F5
ENCODING 245
SWIDTH 588 0
DWIDTH 20 0
BBX 17 26 2 0
BITMAP
078800
0FF800
08F000
000000
000000
000000
000000
1FFC00
3FFE00
700700
E00300
C00380
C00380
C00380
C00380
C00380
C00380
C00380
C00380
C00380
C00380
C00380
E00380
700700
3FFE00
1FFC00
ENDCHAR
STARTCHAR 00F6
ENCODING 246
SWIDTH 588 0
DWIDTH 20 0
BBX 17 25 2 0
BITMAP
0E3800
0E3800
0E3800
000000
000000
000000
1FFC00
3FFE00
700700
E00300
C00380
C00380
C00380
C00380
C00380
C00380
C00380
C00380
C00380
C00380
C00380
E00380
700700
3FFE00
1FFC00
ENDCHAR
STARTCHAR 00F7
ENCODING 247
SWIDTH 529 0
DWIDTH 18 0
BBX 16 14 1 3
BITMAP
0380
0380
0380
0000
0000
0000
FFFF
FFFF
0000
0000
0000
0380
0380
0380
ENDCHAR
STARTCHAR 00F8
ENCODING 248
SWIDTH 558 0
DWIDTH 19 0
BBX 17 19 1 0
BITMAP
1FFC80
3FFF80
700700
E00700
E00F80
E01F80
E03B80
E07380
E0E380
E1C380
E38380
E70380
EE0380
FC0380
F80380
700380
700700
FFFE00
9FFC00
ENDCHAR
STARTCHAR 00F9
ENCODING 249
SWIDTH 617 0
DWIDTH 21 0
BBX 16 27 2 1
BITMAP
0400
0F00
0780
01C0
0040
0000
0000
0000
E007
E007
E007
E007
E007
E007
E007
E007
E007
E007
E007
E007
E007
E007
E007
E007
700F
7FFE
1FF8
ENDCHAR
STARTCHAR 00FA
ENCODING 250
SWIDTH 617 0
DWIDTH 21 0
BBX 16 27 2 1
BITMAP
0010
0078
00F0
01C0
0100
0000
0000
0000
E007
E007
E007
E007
E007
E007
E007
E007
E007
E007
E007
E007
E007
E007
E007
E007
700F
7FFE
1FF8
ENDCHAR
STARTCHAR 00FB
ENCODING 251
SWIDTH 617 0
DWIDTH 21 0
BBX 16 27 2 0
BITMAP
0080
03E0
0770
0E38
0808
0000
0000
0000
E007
E007
E007
E007
E007
E007
E007
E007
E007
E007
E007
E007
E007
E007
E007
E007
700F
7FFE
1FF8
ENDCHAR
STARTCHAR 00FC
ENCODING 252
SWIDTH 617 0
DWIDTH 21 0
BBX 16 25 2 0
BITMAP
0E38
0E38
0E38
0000
0000
0000
E007
E007
E007
E007
E007
E007
E007
E007
E007
E007
E007
E007
E007
E007
E007
E007
700F
7FFE
1FF8
ENDCHAR
STARTCHAR 00FD
ENCODING 253
SWIDTH 529 0
DWIDTH 18 0
BBX 17 27 0 1
BITMAP
001000
007800
00F000
01C000
010000
000000
000000
000000
E00380
700780
700700
380E00
1C1E00
1E1C00
0E3800
077800
07F000
03E000
01C000
01C000
01C000
01C000
01C000
01C000
01C000
01C000
01C000
ENDCHAR
STARTCHAR 00FE
ENCODING 254
SWIDTH 558 0
DWIDTH 19 0
BBX 16 19 2 0
BITMAP
E000
E000
E000
FFF8
FFFE
E00E
E007
E007
E007
E007
E007
E007
E00E
FFFE
FFF8
E000
E000
E000
E000
ENDCHAR
STARTCHAR 00FF
ENCODING 255
SWIDTH 529 0
DWIDTH 18 0
BBX 17 25 0 0
BITMAP
0E3800
0E3800
0E3800
000000
000000
000000
E00380
700780
700700
380E00
1C1E00
1E1C00
0E3800
077800
07F000
03E000
01C000
01C000
01C000
01C000
01C000
01C000
01C000
01C000
01C000
ENDCHAR
STARTCHAR 0106
ENCODING 262
SWIDTH 558 0
DWIDTH 19 0
BBX 16 27 2 1
BITMAP
0010
0078
00F0
01C0
0100
0000
0000
0000
1FFC
3FFE
700F
E007
E007
E007
E000
E000
E000
E000
E000
E000
E007
E007
E007
E007
700E
3FFE
1FF8
ENDCHAR
STARTCHAR 0107
ENCODING 263
SWIDTH 558 0
DWIDTH 19 0
BBX 16 27 2 1
BITMAP
0010
0078
00F0
01C0
0100
0000
0000
0000
1FFC
3FFE
700F
E007
E007
E007
E000
E000
E000
E000
E000
E000
E007
E007
E007
E007
700E
3FFE
1FF8
ENDCHAR
STARTCHAR 010C
ENCODING 268
SWIDTH 558 0
DWIDTH 19 0
BBX 16 27 2 0
BITMAP
1010
1C70
0EE0
03C0
0100
0000
0000
0000
1FFC
3FFE
700F
E007
E007
E007
E000
E000
E000
E000
E000
E000
E007
E007
E007
E007
700E
3FFE
1FF8
ENDCHAR
STARTCHAR 010D
ENCODING 269
SWIDTH 558 0
DWIDTH 19 0
BBX 16 27 2 0
BITMAP
1010
1C70
0EE0
03C0
0100
0000
0000
0000
1FFC
3FFE
700F
E007
E007
E007
E000
E000
E000
E000
E000
E000
E007
E007
E007
E007
700E
3FFE
1FF8
ENDCHAR
STARTCHAR 0111
ENCODING 273
SWIDTH 617 0
DWIDTH 21 0
BBX 18 19 1 0
BITMAP
3FFC00
3FFF00
380780
380380
3801C0
3801C0
3801C0
3801C0
FF81C0
FF81C0
3801C0
3801C0
3801C0
3801C0
3801C0
380380
380780
3FFF00
3FFC00
ENDCHAR
STARTCHAR 011E
ENCODING 286
SWIDTH 588 0
DWIDTH 20 0
BBX 17 27 2 0
BITMAP
080800
0C1800
0E3800
07F000
03E000
000000
000000
000000
1FFC00
3FFF00
700700
E00300
E00380
E00380
E00000
E00000
E00000
E0FF80
E0FF80
E00380
E00380
E00380
E00380
E00380
700700
3FFF00
1FFC00
ENDCHAR
STARTCHAR 011F
ENCODING 287
SWIDTH 588 0
DWIDTH 20 0
BBX 17 27 2 0
BITMAP
080800
0C1800
0E3800
07F000
03E000
000000
000000
000000
1FFC00
3FFF00
700700
E00300
E00380
E00380
E00000
E00000
E00000
E0FF80
E0FF80
E00380
E00380
E00380
E00380
E00380
700700
3FFF00
1FFC00
ENDCHAR
STARTCHAR 0130
ENCODING 304
SWIDTH 235 0
DWIDTH 8 0
BBX 3 25 2 0
BITMAP
60
60
60
00
00
00
E0
E0
E0
E0
E0
E0
E0
E0
E0
E0
E0
E0
E0
E0
E0
E0
E0
E0
E0
ENDCHAR
STARTCHAR 0131
ENCODING 305
SWIDTH 205 0
DWIDTH 7 0
BBX 3 19 2 0
BITMAP
E0
E0
E0
E0
E0
E0
E0
E0
E0
E0
E0
E0
E0
E0
E0
E0
E0
E0
E0
ENDCHAR
STARTCHAR 0141
ENCODING 321
SWIDTH 500 0
DWIDTH 17 0
BBX 15 19 1 0
BITMAP
3800
3800
3800
3800
3800
3A00
3E00
3E00
3C00
3800
7800
F800
B800
3800
3800
3800
3FFE
3FFE
3FFE
ENDCHAR
STARTCHAR 0142
ENCODING 322
SWIDTH 500 0
DWIDTH 17 0
BBX 15 19 1 0
BITMAP
3800
3800
3800
3800
3800
3A00
3E00
3E00
3C00
3800
7800
F800
B800
3800
3800
3800
3FFE
3FFE
3FFE
ENDCHAR
STARTCHAR 0152
ENCODING 338
SWIDTH 882 0
DWIDTH 30 0
BBX 27 20 2 0
BITMAP
07E00000
1FFBFFE0
3FFFFFE0
70078000
E0038000
E0038000
E0038000
E0038000
E0038000
E003FFE0
E003FFE0
E0038000
E0038000
E0038000
E0038000
E0038000
E0038000
70078000
7FFFFFE0
1FFBFFE0
ENDCHAR
STARTCHAR 0153
ENCODING 339
SWIDTH 882 0
DWIDTH 30 0
BBX 28 19 1 0
BITMAP
0FFDFFF0
3FFFFFF0
70078000
E0038000
E0038000
E0038000
E0038000
E0038000
E003FFE0
E003FFE0
E0038000
E0038000
E0038000
E0038000
E0038000
E0038000
70078000
3FFFFFF0
1FFDFFF0
ENDCHAR
STARTCHAR 015E
ENCODING 350
SWIDTH 529 0
DWIDTH 18 0
BBX 16 26 1 -7
BITMAP
0FF8
3FFE
780E
7006
7006
7000
7000
7800
3FF8
3FFE
07FF
0007
0007
E007
6007
6007
700F
7FFE
1FF8
0000
0060
0060
00E0
03E0
03C0
0380
ENDCHAR
STARTCHAR 015F
ENCODING 351
SWIDTH 529 0
DWIDTH 18 0
BBX 16 26 1 -7
BITMAP
0FF8
3FFE
780E
7006
7006
7000
7000
7800
3FF8
3FFE
07FF
0007
0007
E007
6007
6007
700F
7FFE
1FF8
0000
0060
0060
00E0
03E0
03C0
0380
ENDCHAR
STARTCHAR 0160
ENCODING 352
SWIDTH 529 0
DWIDTH 18 0
BBX 16 27 1 0
BITMAP
0810
1C38
0760
03C0
0180
0000
0000
0000
0FF8
3FFE
780E
7006
7006
7000
7000
7800
3FF8
3FFE
07FF
0007
0007
E007
6007
6007
700F
7FFE
1FF8
ENDCHAR
STARTCHAR 0161
ENCODING 353
SWIDTH 529 0
DWIDTH 18 0
BBX 16 27 1 0
BITMAP
0810
1C38
0760
03C0
0180
0000
0000
0000
0FF8
3FFE
780E
7006
7006
7000
7000
7800
3FF8
3FFE
07FF
0007
0007
E007
6007
6007
700F
7FFE
1FF8
ENDCHAR
STARTCHAR 0178
ENCODING 376
SWIDTH 529 0
DWIDTH 18 0
BBX 17 25 0 0
BITMAP
0E3800
0E3800
0E3800
000000
000000
000000
E00380
700780
700700
380E00
1C1E00
1E1C00
0E3800
077800
07F000
03E000
01C000
01C000
01C000
01C000
01C000
01C000
01C000
01C000
01C000
ENDCHAR
STARTCHAR 017D
ENCODING 381
SWIDTH 529 0
DWIDTH 18 0
BBX 16 27 1 0
BITMAP
0810
1C38
06E0
03C0
0180
0000
0000
0000
FFFF
FFFF
000E
001E
003C
0038
0070
00E0
01C0
03C0
0780
0700
0E00
1C00
3800
7000
F000
FFFF
FFFF
ENDCHAR
STARTCHAR 017E
ENCODING 382
SWIDTH 529 0
DWIDTH 18 0
BBX 16 27 1 0
BITMAP
0810
1C38
06E0
03C0
0180
0000
0000
0000
FFFF
FFFF
000E
001E
003C
0038
0070
00E0
01C0
03C0
0780
0700
0E00
1C00
3800
7000
F000
FFFF
FFFF
ENDCHAR
STARTCHAR 0192
ENCODING 402
SWIDTH 382 0
DWIDTH 13 0
BBX 14 26 -1 -4
BITMAP
007C
00FC
01C0
01C0
0180
0180
0180
0FF0
0FF0
0380
0300
0300
0700
0700
0700
0700
0600
0600
0E00
0E00
0E00
0C00
0C00
1C00
FC00
F000
ENDCHAR
STARTCHAR 02C6
ENCODING 710
SWIDTH 500 0
DWIDTH 17 0
BBX 9 5 4 22
BITMAP
0800
3E00
7700
E380
8080
ENDCHAR
STARTCHAR 02C7
ENCODING 711
SWIDTH 500 0
DWIDTH 17 0
BBX 9 5 4 22
BITMAP
8080
E380
7700
3E00
0800
ENDCHAR
STARTCHAR 02C9
ENCODING 713
SWIDTH 500 0
DWIDTH 17 0
BBX 9 2 4 23
BITMAP
FF80
FF80
ENDCHAR
STARTCHAR 02D8
ENCODING 728
SWIDTH 500 0
DWIDTH 17 0
BBX 9 5 4 22
BITMAP
8080
C180
E380
7F00
3E00
ENDCHAR
STARTCHAR 02D9
ENCODING 729
SWIDTH 500 0
DWIDTH 17 0
BBX 3 3 7 22
BITMAP
E0
E0
E0
ENDCHAR
STARTCHAR 02DA
ENCODING 730
SWIDTH 500 0
DWIDTH 17 0
BBX 5 6 6 21
BITMAP
70
D8
88
88
D8
70
ENDCHAR
STARTCHAR 02DB
ENCODING 731
SWIDTH 500 0
DWIDTH 17 0
BBX 5 7 11 -7
BITMAP
30
60
C0
C0
E0
F8
78
ENDCHAR
STARTCHAR 02DC
ENCODING 732
SWIDTH 500 0
DWIDTH 17 0
BBX 9 3 4 22
BITMAP
7880
FF80
8F00
ENDCHAR
STARTCHAR 02DD
ENCODING 733
SWIDTH 500 0
DWIDTH 17 0
BBX 10 5 5 22
BITMAP
1080
39C0
7380
E700
8400
ENDCHAR
STARTCHAR 03C0
ENCODING 960
SWIDTH 558 0
DWIDTH 19 0
BBX 17 16 1 0
BITMAP
FFFF80
FFFF80
300600
300600
300600
300600
300600
300600
300600
300600
300600
300600
300600
300600
300600
300600
ENDCHAR
STARTCHAR 2013
ENCODING 8211
SWIDTH 529 0
DWIDTH 18 0
BBX 15 3 2 8
BITMAP
FFFE
FFFE
FFFE
ENDCHAR
STARTCHAR 2014
ENCODING 8212
SWIDTH 794 0
DWIDTH 27 0
BBX 27 3 0 8
BITMAP
FFFFFFE0
FFFFFFE0
FFFFFFE0
ENDCHAR
STARTCHAR 2018
ENCODING 8216
SWIDTH 235 0
DWIDTH 8 0
BBX 4 8 2 16
BITMAP
70
E0
C0
C0
E0
E0
E0
E0
ENDCHAR
STARTCHAR 2019
ENCODING 8217
SWIDTH 235 0
DWIDTH 8 0
BBX 4 8 2 15
BITMAP
F0
F0
F0
F0
30
30
F0
E0
ENDCHAR
STARTCHAR 201A
ENCODING 8218
SWIDTH 235 0
DWIDTH 8 0
BBX 4 8 2 -4
BITMAP
F0
F0
F0
F0
30
30
F0
E0
ENDCHAR
STARTCHAR 201C
ENCODING 8220
SWIDTH 382 0
DWIDTH 13 0
BBX 9 8 2 16
BITMAP
7380
E700
C600
C600
E780
E780
E780
E780
ENDCHAR
STARTCHAR 201D
ENCODING 8221
SWIDTH 382 0
DWIDTH 13 0
BBX 9 8 2 15
BITMAP
F380
F380
F380
F380
3180
3180
F780
E700
ENDCHAR
STARTCHAR 201E
ENCODING 8222
SWIDTH 382 0
DWIDTH 13 0
BBX 9 8 2 -4
BITMAP
F380
F380
F380
F380
3180
3180
F780
E700
ENDCHAR
STARTCHAR 2020
ENCODING 8224
SWIDTH 441 0
DWIDTH 15 0
BBX 12 26 2 -3
BITMAP
0600
0600
0600
0600
0600
FFF0
FFF0
0600
0600
0600
0600
0600
0600
0600
0600
0600
0600
0600
0600
0600
0600
0600
0600
0600
0600
0600
ENDCHAR
STARTCHAR 2021
ENCODING 8225
SWIDTH 441 0
DWIDTH 15 0
BBX 12 26 2 -3
BITMAP
0600
0600
0600
0600
0600
FFF0
FFF0
0600
0600
0600
0600
0600
0600
0600
0600
0600
0600
0600
0600
FFF0
FFF0
0600
0600
0600
0600
0600
ENDCHAR
STARTCHAR 2022
ENCODING 8226
SWIDTH 676 0
DWIDTH 23 0
BBX 9 9 7 5
BITMAP
3E00
7F00
FF80
FF80
FF80
FF80
FF80
7F00
3E00
ENDCHAR
STARTCHAR 2026
ENCODING 8230
SWIDTH 617 0
DWIDTH 21 0
BBX 17 4 2 0
BITMAP
E1C380
E1C380
E1C380
E1C380
ENDCHAR
STARTCHAR 2030
ENCODING 8240
SWIDTH 1294 0
DWIDTH 44 0
BBX 42 20 1 0
BITMAP
000030000000
3FC070000000
FFE060000000
E070E0000000
C030C0000000
C031C0000000
C03180000000
C03380000000
C0333FC0FF00
C0367FE1FF80
FFF6E07381C0
3FCCC03300C0
000CC03300C0
0018C03300C0
0038C03300C0
0030C03300C0
0070C03300C0
0060E07381C0
00E07FE1FF80
00C03FC0FF00
ENDCHAR
STARTCHAR 2039
ENCODING 8249
SWIDTH 294 0
DWIDTH 10 0
BBX 6 16 2 2
BITMAP
10
18
38
38
70
70
60
E0
E0
60
70
30
38
18
1C
08
ENDCHAR
STARTCHAR 203A
ENCODING 8250
SWIDTH 294 0
DWIDTH 10 0
BBX 6 15 2 2
BITMAP
60
60
70
30
38
18
1C
1C
1C
38
30
70
60
E0
40
ENDCHAR
STARTCHAR 20A3
ENCODING 8355
SWIDTH 647 0
DWIDTH 22 0
BBX 20 20 2 0
BITMAP
FFE000
FFE000
E00000
E00000
E00000
E00000
E00000
E00000
E01BC0
FF1FE0
FF1C30
E01830
E01830
E01800
E01800
E01800
E01800
E01800
E01800
E01800
ENDCHAR
STARTCHAR 20AC
ENCODING 8364
SWIDTH 500 0
DWIDTH 17 0
BBX 14 22 1 -1
BITMAP
07F0
0FF8
1E10
1C00
3800
3800
3800
3800
7FE0
FFE0
3800
3800
7FC0
FFC0
3800
3800
3800
3800
3C00
1E08
0FFC
07F8
ENDCHAR
STARTCHAR 2122
ENCODING 8482
SWIDTH 852 0
DWIDTH 29 0
BBX 25 13 2 10
BITMAP
FFCE0380
FFCE0380
0C0F0780
0C0F0780
0C0F0F80
0C0D8D80
0C0D8D80
0C0C9980
0C0CD980
0C0CD980
0C0C7180
0C0C7180
0C0C7180
ENDCHAR
STARTCHAR 2126
ENCODING 8486
SWIDTH 676 0
DWIDTH 23 0
BBX 21 23 1 0
BITMAP
01FC00
07FF00
0F0780
1C01C0
3800E0
7800F0
700070
F00070
E00038
E00038
E00038
E00038
E00038
E00038
600070
700070
700070
3800E0
1C01C0
0E0380
070700
FF8FF8
FF8FF8
ENDCHAR
STARTCHAR 2202
ENCODING 8706
SWIDTH 500 0
DWIDTH 17 0
BBX 15 23 1 0
BITMAP
3000
3E00
1F80
03C0
00E0
0070
0038
0018
07DC
1FEC
383E
701E
600E
C006
C006
C006
C006
C006
600C
701C
3838
1FF0
07C0
ENDCHAR
STARTCHAR 2206
ENCODING 8710
SWIDTH 617 0
DWIDTH 21 0
BBX 21 23 0 0
BITMAP
007000
007000
00F800
00D800
01DC00
01CC00
018C00
038E00
030600
030700
070300
060300
0E0380
0C0180
0C01C0
1C01C0
1800C0
3800E0
380060
300070
700070
7FFFF0
FFFFF8
ENDCHAR
STARTCHAR 220F
ENCODING 8719
SWIDTH 676 0
DWIDTH 23 0
BBX 21 35 1 -9
BITMAP
FFFFF8
FFFFF8
3000C0
3000C0
3000C0
3000C0
3000C0
3000C0
3000C0
3000C0
3000C0
3000C0
3000C0
3000C0
3000C0
3000C0
3000C0
3000C0
3000C0
3000C0
3000C0
3000C0
3000C0
3000C0
3000C0
3000C0
3000C0
3000C0
3000C0
3000C0
3000C0
3000C0
3000C0
FE07F8
FE07F8
ENDCHAR
STARTCHAR 2211
ENCODING 8721
SWIDTH 676 0
DWIDTH 23 0
BBX 20 35 1 -9
BITMAP
FFFFE0
FFFFE0
E000E0
700060
700060
380060
380060
1C0060
0E0000
0E0000
070000
070000
038000
038000
01C000
00E000
00E000
00E000
01C000
01C000
038000
038000
070000
070000
0E0000
0E0000
1C0000
1C0070
380070
380070
700070
700070
E00070
FFFFF0
FFFFF0
ENDCHAR
STARTCHAR 2212
ENCODING 8722
SWIDTH 529 0
DWIDTH 18 0
BBX 16 2 1 9
BITMAP
FFFF
FFFF
ENDCHAR
STARTCHAR 2215
ENCODING 8725
SWIDTH 147 0
DWIDTH 5 0
BBX 13 20 -4 0
BITMAP
0018
0030
0030
0060
00E0
00C0
01C0
0180
0380
0300
0600
0600
0C00
0C00
1800
1800
3000
7000
6000
E000
ENDCHAR
STARTCHAR 2219
ENCODING 8729
SWIDTH 205 0
DWIDTH 7 0
BBX 3 4 2 7
BITMAP
E0
E0
E0
E0
ENDCHAR
STARTCHAR 221A
ENCODING 8730
SWIDTH 676 0
DWIDTH 23 0
BBX 23 28 0 0
BITMAP
0003FE
0003FE
000300
000700
000700
000600
000E00
000E00
000C00
000C00
001C00
001C00
001800
003800
003800
003000
F87000
F87000
186000
186000
1CE000
0CE000
0CC000
0FC000
07C000
078000
078000
038000
ENDCHAR
STARTCHAR 221E
ENCODING 8734
SWIDTH 676 0
DWIDTH 23 0
BBX 21 11 1 4
BITMAP
1E03C0
7F0FF0
619C70
C0D838
C07018
C06018
C07018
C0D838
618C30
7F0FF0
1E03C0
ENDCHAR
STARTCHAR 222B
ENCODING 8747
SWIDTH 500 0
DWIDTH 17 0
BBX 11 34 3 -9
BITMAP
03C0
07E0
0F00
0E00
0E00
0E00
0E00
0E00
0E00
0E00
0E00
0E00
0E00
0E00
0E00
0E00
0E00
0E00
0E00
0E00
0E00
0E00
0E00
0E00
0E00
0E00
0E00
0E00
0E00
0E00
0E00
1E00
7C00
F800
ENDCHAR
STARTCHAR 2248
ENCODING 8776
SWIDTH 500 0
DWIDTH 17 0
BBX 17 11 0 4
BITMAP
1E0100
3F8380
71C300
60FE00
403C00
000000
1E0100
3F8300
61C700
E0FE00
403C00
ENDCHAR
STARTCHAR 2260
ENCODING 8800
SWIDTH 529 0
DWIDTH 18 0
BBX 16 13 1 3
BITMAP
0018
0038
0038
FFFF
FFFF
01C0
0180
0380
FFFF
FFFF
1C00
1C00
1800
ENDCHAR
STARTCHAR 2264
ENCODING 8804
SWIDTH 500 0
DWIDTH 17 0
BBX 15 17 1 2
BITMAP
0006
001E
00FC
03F0
1F80
FE00
F000
F800
7E00
0FC0
03F0
007E
001E
0002
0000
FFFE
FFFE
ENDCHAR
STARTCHAR 2265
ENCODING 8805
SWIDTH 500 0
DWIDTH 17 0
BBX 15 17 1 2
BITMAP
C000
F000
7E00
1F80
03F0
00FC
001E
003E
00FC
07E0
1F80
FC00
F000
8000
0000
FFFE
FFFE
ENDCHAR
STARTCHAR 25CA
ENCODING 9674
SWIDTH 676 0
DWIDTH 23 0
BBX 17 24 3 0
BITMAP
008000
01C000
03E000
076000
063000
0C1800
181800
380C00
300600
600700
C00300
C00180
C00380
600300
300600
300C00
181C00
0C1800
0E3000
067000
036000
01C000
018000
008000
ENDCHAR
STARTCHAR F000
ENCODING 61440
SWIDTH 676 0
DWIDTH 23 0
BBX 21 24 1 0
BITMAP
000600
000E00
001E00
001C00
003800
0F87C0
3FFFE0
7FFFF0
7FFFE0
FFFFC0
FFFF80
FFFF80
FFFF80
FFFF80
FFFFC0
FFFFC0
7FFFE0
7FFFF8
7FFFF0
3FFFF0
3FFFE0
1FFFE0
0FFFC0
078780
ENDCHAR
STARTCHAR F001
ENCODING 61441
SWIDTH 676 0
DWIDTH 23 0
BBX 19 19 2 0
BITMAP
FFF8E0
FFF8E0
E000E0
E000E0
E000E0
E000E0
E000E0
E000E0
FFF8E0
FFF8E0
E000E0
E000E0
E000E0
E000E0
E000E0
E000E0
E000E0
E000E0
E000E0
ENDCHAR
STARTCHAR F002
ENCODING 61442
SWIDTH 941 0
DWIDTH 32 0
BBX 29 19 2 0
BITMAP
FFF8E000
FFF8E000
E000E000
E000E000
E000E000
E000E000
E000E000
E000E000
FFF8E000
FFF8E000
E000E000
E000E000
E000E000
E000E000
E000E000
E000E000
E000FFF8
E000FFF8
E000FFF8
ENDCHAR
ENDFONT
